<mxfile host="app.diagrams.net" modified="2023-07-26T22:01:57.369Z" agent="Mozilla/5.0 (Macintosh; Intel Mac OS X 10_15_7) AppleWebKit/537.36 (KHTML, like Gecko) Chrome/115.0.0.0 Safari/537.36" etag="tWnckem3LWlbVSA8hx_Y" version="21.6.5" type="device">
  <diagram id="prtHgNgQTEPvFCAcTncT" name="Page-1">
    <mxGraphModel dx="943" dy="511" grid="1" gridSize="10" guides="1" tooltips="1" connect="1" arrows="1" fold="1" page="0" pageScale="1" pageWidth="827" pageHeight="1169" math="0" shadow="0">
      <root>
        <mxCell id="0" />
        <mxCell id="1" parent="0" />
        <mxCell id="upIV8DirMd88bO7Y29y2-3" style="edgeStyle=orthogonalEdgeStyle;rounded=0;orthogonalLoop=1;jettySize=auto;html=1;entryX=0.25;entryY=1;entryDx=0;entryDy=0;exitX=0.436;exitY=0.005;exitDx=0;exitDy=0;exitPerimeter=0;fontFamily=Inconsolata;fontSource=https%3A%2F%2Ffonts.googleapis.com%2Fcss%3Ffamily%3DInconsolata;fontSize=10;" parent="1" source="upIV8DirMd88bO7Y29y2-1" target="upIV8DirMd88bO7Y29y2-5" edge="1">
          <mxGeometry relative="1" as="geometry">
            <mxPoint x="380" y="320" as="targetPoint" />
            <Array as="points">
              <mxPoint x="272" y="299" />
            </Array>
          </mxGeometry>
        </mxCell>
        <mxCell id="upIV8DirMd88bO7Y29y2-1" value="DRAM" style="rounded=1;whiteSpace=wrap;html=1;rotation=90;fontFamily=Inconsolata;fontSource=https%3A%2F%2Ffonts.googleapis.com%2Fcss%3Ffamily%3DInconsolata;fontSize=10;fillColor=#f5f5f5;fontColor=#333333;strokeColor=#666666;" parent="1" vertex="1">
          <mxGeometry x="172.5" y="280" width="70" height="45" as="geometry" />
        </mxCell>
        <mxCell id="upIV8DirMd88bO7Y29y2-4" value="AES Decrypt" style="rounded=1;whiteSpace=wrap;html=1;rotation=0;fontFamily=Inconsolata;fontSource=https%3A%2F%2Ffonts.googleapis.com%2Fcss%3Ffamily%3DInconsolata;fontSize=10;fillColor=#f5f5f5;fontColor=#333333;strokeColor=#666666;" parent="1" vertex="1">
          <mxGeometry x="282" y="320" width="70" height="40" as="geometry" />
        </mxCell>
        <mxCell id="upIV8DirMd88bO7Y29y2-12" style="rounded=0;orthogonalLoop=1;jettySize=auto;html=1;endArrow=classic;endFill=1;entryX=0.75;entryY=1;entryDx=0;entryDy=0;fontFamily=Inconsolata;fontSource=https%3A%2F%2Ffonts.googleapis.com%2Fcss%3Ffamily%3DInconsolata;fontSize=10;" parent="1" source="upIV8DirMd88bO7Y29y2-4" target="upIV8DirMd88bO7Y29y2-5" edge="1">
          <mxGeometry relative="1" as="geometry" />
        </mxCell>
        <mxCell id="upIV8DirMd88bO7Y29y2-19" style="edgeStyle=orthogonalEdgeStyle;rounded=0;orthogonalLoop=1;jettySize=auto;html=1;exitX=0.5;exitY=0;exitDx=0;exitDy=0;fontFamily=Inconsolata;fontSource=https%3A%2F%2Ffonts.googleapis.com%2Fcss%3Ffamily%3DInconsolata;fontSize=10;" parent="1" source="upIV8DirMd88bO7Y29y2-5" target="upIV8DirMd88bO7Y29y2-6" edge="1">
          <mxGeometry relative="1" as="geometry" />
        </mxCell>
        <mxCell id="upIV8DirMd88bO7Y29y2-5" value="" style="shape=trapezoid;perimeter=trapezoidPerimeter;whiteSpace=wrap;html=1;fixedSize=1;rotation=90;fontFamily=Inconsolata;fontSource=https%3A%2F%2Ffonts.googleapis.com%2Fcss%3Ffamily%3DInconsolata;fontSize=10;fillStyle=solid;fillColor=#f5f5f5;fontColor=#333333;strokeColor=#666666;" parent="1" vertex="1">
          <mxGeometry x="363.5" y="298.75" width="81.5" height="40.5" as="geometry" />
        </mxCell>
        <mxCell id="upIV8DirMd88bO7Y29y2-6" value="CPU" style="rounded=1;whiteSpace=wrap;html=1;rotation=0;fontFamily=Inconsolata;fontSource=https%3A%2F%2Ffonts.googleapis.com%2Fcss%3Ffamily%3DInconsolata;fontSize=10;fillColor=#f5f5f5;fontColor=#333333;strokeColor=#666666;" parent="1" vertex="1">
          <mxGeometry x="450" y="304" width="60" height="30" as="geometry" />
        </mxCell>
        <mxCell id="upIV8DirMd88bO7Y29y2-9" style="edgeStyle=orthogonalEdgeStyle;rounded=0;orthogonalLoop=1;jettySize=auto;html=1;entryX=0.021;entryY=0.75;entryDx=0;entryDy=0;entryPerimeter=0;fontFamily=Inconsolata;fontSource=https%3A%2F%2Ffonts.googleapis.com%2Fcss%3Ffamily%3DInconsolata;fontSize=10;" parent="1" source="upIV8DirMd88bO7Y29y2-7" target="upIV8DirMd88bO7Y29y2-5" edge="1">
          <mxGeometry relative="1" as="geometry" />
        </mxCell>
        <mxCell id="upIV8DirMd88bO7Y29y2-7" value="PTE C-bit&lt;br style=&quot;font-size: 10px;&quot;&gt;" style="text;html=1;strokeColor=none;fillColor=none;align=center;verticalAlign=middle;whiteSpace=wrap;rounded=0;fontFamily=Inconsolata;fontSource=https%3A%2F%2Ffonts.googleapis.com%2Fcss%3Ffamily%3DInconsolata;fontSize=10;" parent="1" vertex="1">
          <mxGeometry x="364.75" y="240" width="60" height="20" as="geometry" />
        </mxCell>
        <mxCell id="upIV8DirMd88bO7Y29y2-16" value="" style="endArrow=classic;html=1;rounded=0;fontFamily=Inconsolata;fontSource=https%3A%2F%2Ffonts.googleapis.com%2Fcss%3Ffamily%3DInconsolata;fontSize=10;" parent="1" edge="1">
          <mxGeometry width="50" height="50" relative="1" as="geometry">
            <mxPoint x="250" y="300" as="sourcePoint" />
            <mxPoint x="280" y="340" as="targetPoint" />
            <Array as="points">
              <mxPoint x="250" y="340" />
            </Array>
          </mxGeometry>
        </mxCell>
        <mxCell id="upIV8DirMd88bO7Y29y2-17" value="Data" style="text;html=1;align=center;verticalAlign=middle;resizable=0;points=[];autosize=1;strokeColor=none;fillColor=none;fontFamily=Inconsolata;fontSource=https%3A%2F%2Ffonts.googleapis.com%2Fcss%3Ffamily%3DInconsolata;fontSize=10;" parent="1" vertex="1">
          <mxGeometry x="235" y="270" width="40" height="30" as="geometry" />
        </mxCell>
        <mxCell id="upIV8DirMd88bO7Y29y2-20" value="Memory Read" style="text;html=1;align=center;verticalAlign=middle;resizable=0;points=[];autosize=1;strokeColor=none;fillColor=none;fontFamily=Inconsolata;fontSource=https%3A%2F%2Ffonts.googleapis.com%2Fcss%3Ffamily%3DInconsolata;fontSize=10;" parent="1" vertex="1">
          <mxGeometry x="280" y="218" width="80" height="30" as="geometry" />
        </mxCell>
        <mxCell id="upIV8DirMd88bO7Y29y2-32" value="Memory Write" style="text;html=1;align=center;verticalAlign=middle;resizable=0;points=[];autosize=1;strokeColor=none;fillColor=none;fontFamily=Inconsolata;fontSource=https%3A%2F%2Ffonts.googleapis.com%2Fcss%3Ffamily%3DInconsolata;fontSize=10;" parent="1" vertex="1">
          <mxGeometry x="280" y="370" width="80" height="30" as="geometry" />
        </mxCell>
        <mxCell id="upIV8DirMd88bO7Y29y2-49" value="" style="group;rotation=-180;fontFamily=Inconsolata;fontSource=https%3A%2F%2Ffonts.googleapis.com%2Fcss%3Ffamily%3DInconsolata;fontSize=10;" parent="1" vertex="1" connectable="0">
          <mxGeometry x="170" y="428" width="339.5" height="147" as="geometry" />
        </mxCell>
        <mxCell id="upIV8DirMd88bO7Y29y2-41" style="edgeStyle=orthogonalEdgeStyle;rounded=0;orthogonalLoop=1;jettySize=auto;html=1;exitX=0.5;exitY=0;exitDx=0;exitDy=0;fontFamily=Inconsolata;fontSource=https%3A%2F%2Ffonts.googleapis.com%2Fcss%3Ffamily%3DInconsolata;fontSize=10;" parent="upIV8DirMd88bO7Y29y2-49" source="upIV8DirMd88bO7Y29y2-42" edge="1">
          <mxGeometry relative="1" as="geometry">
            <mxPoint x="60" y="41" as="targetPoint" />
          </mxGeometry>
        </mxCell>
        <mxCell id="upIV8DirMd88bO7Y29y2-22" value="DRAM" style="rounded=1;whiteSpace=wrap;html=1;rotation=90;fontFamily=Inconsolata;fontSource=https%3A%2F%2Ffonts.googleapis.com%2Fcss%3Ffamily%3DInconsolata;fontSize=10;container=0;fillColor=#f5f5f5;fontColor=#333333;strokeColor=#666666;" parent="upIV8DirMd88bO7Y29y2-49" vertex="1">
          <mxGeometry y="25" width="70" height="45" as="geometry" />
        </mxCell>
        <mxCell id="upIV8DirMd88bO7Y29y2-42" value="" style="shape=trapezoid;perimeter=trapezoidPerimeter;whiteSpace=wrap;html=1;fixedSize=1;rotation=-90;fontFamily=Inconsolata;fontSource=https%3A%2F%2Ffonts.googleapis.com%2Fcss%3Ffamily%3DInconsolata;fontSize=10;container=0;fillColor=#f5f5f5;fontColor=#333333;strokeColor=#666666;" parent="upIV8DirMd88bO7Y29y2-49" vertex="1">
          <mxGeometry x="65" y="21.000000000000004" width="81.5" height="40.5" as="geometry" />
        </mxCell>
        <mxCell id="upIV8DirMd88bO7Y29y2-37" style="edgeStyle=orthogonalEdgeStyle;rounded=0;orthogonalLoop=1;jettySize=auto;html=1;entryX=0.25;entryY=1;entryDx=0;entryDy=0;exitX=0.436;exitY=0.005;exitDx=0;exitDy=0;exitPerimeter=0;fontFamily=Inconsolata;fontSource=https%3A%2F%2Ffonts.googleapis.com%2Fcss%3Ffamily%3DInconsolata;fontSize=10;" parent="upIV8DirMd88bO7Y29y2-49" edge="1">
          <mxGeometry relative="1" as="geometry">
            <mxPoint x="125.27000000000001" y="21.005000000000003" as="targetPoint" />
            <Array as="points">
              <mxPoint x="237.27" y="20.380000000000003" />
            </Array>
            <mxPoint x="279.995" y="21.36000000000002" as="sourcePoint" />
          </mxGeometry>
        </mxCell>
        <mxCell id="upIV8DirMd88bO7Y29y2-39" value="" style="rounded=1;whiteSpace=wrap;html=1;rotation=-180;fontFamily=Inconsolata;fontSource=https%3A%2F%2Ffonts.googleapis.com%2Fcss%3Ffamily%3DInconsolata;fontSize=10;container=0;fillColor=#f5f5f5;fontColor=#333333;strokeColor=#666666;" parent="upIV8DirMd88bO7Y29y2-49" vertex="1">
          <mxGeometry x="164.5" y="40" width="70" height="40" as="geometry" />
        </mxCell>
        <mxCell id="upIV8DirMd88bO7Y29y2-40" style="rounded=0;orthogonalLoop=1;jettySize=auto;html=1;endArrow=classic;endFill=1;entryX=0.25;entryY=1;entryDx=0;entryDy=0;fontFamily=Inconsolata;fontSource=https%3A%2F%2Ffonts.googleapis.com%2Fcss%3Ffamily%3DInconsolata;fontSize=10;" parent="upIV8DirMd88bO7Y29y2-49" source="upIV8DirMd88bO7Y29y2-39" target="upIV8DirMd88bO7Y29y2-42" edge="1">
          <mxGeometry relative="1" as="geometry" />
        </mxCell>
        <mxCell id="upIV8DirMd88bO7Y29y2-54" value="AES Encrypt&lt;br style=&quot;font-size: 10px;&quot;&gt;" style="text;html=1;strokeColor=none;fillColor=none;align=center;verticalAlign=middle;whiteSpace=wrap;rounded=0;fontFamily=Inconsolata;fontSource=https%3A%2F%2Ffonts.googleapis.com%2Fcss%3Ffamily%3DInconsolata;fontSize=10;container=0;" parent="upIV8DirMd88bO7Y29y2-49" vertex="1">
          <mxGeometry x="169.5" y="45" width="60" height="30" as="geometry" />
        </mxCell>
        <mxCell id="upIV8DirMd88bO7Y29y2-55" value="Data" style="text;html=1;align=center;verticalAlign=middle;resizable=0;points=[];autosize=1;strokeColor=none;fillColor=none;fontFamily=Inconsolata;fontSource=https%3A%2F%2Ffonts.googleapis.com%2Fcss%3Ffamily%3DInconsolata;fontSize=10;container=0;" parent="upIV8DirMd88bO7Y29y2-49" vertex="1">
          <mxGeometry x="234.5" y="-3" width="40" height="30" as="geometry" />
        </mxCell>
        <mxCell id="upIV8DirMd88bO7Y29y2-56" value="CPU" style="rounded=1;whiteSpace=wrap;html=1;rotation=0;fontFamily=Inconsolata;fontSource=https%3A%2F%2Ffonts.googleapis.com%2Fcss%3Ffamily%3DInconsolata;fontSize=10;container=0;fillColor=#f5f5f5;fontColor=#333333;strokeColor=#666666;" parent="upIV8DirMd88bO7Y29y2-49" vertex="1">
          <mxGeometry x="279.5" y="10" width="60" height="30" as="geometry" />
        </mxCell>
        <mxCell id="upIV8DirMd88bO7Y29y2-51" value="" style="endArrow=classic;html=1;rounded=0;entryX=0;entryY=0.5;entryDx=0;entryDy=0;fontFamily=Inconsolata;fontSource=https%3A%2F%2Ffonts.googleapis.com%2Fcss%3Ffamily%3DInconsolata;fontSize=10;" parent="1" target="upIV8DirMd88bO7Y29y2-39" edge="1">
          <mxGeometry width="50" height="50" relative="1" as="geometry">
            <mxPoint x="435" y="450" as="sourcePoint" />
            <mxPoint x="385" y="330" as="targetPoint" />
            <Array as="points">
              <mxPoint x="435" y="488" />
            </Array>
          </mxGeometry>
        </mxCell>
        <mxCell id="upIV8DirMd88bO7Y29y2-53" value="PTE C-bit&lt;br style=&quot;font-size: 10px;&quot;&gt;" style="text;html=1;strokeColor=none;fillColor=none;align=center;verticalAlign=middle;whiteSpace=wrap;rounded=0;fontFamily=Inconsolata;fontSource=https%3A%2F%2Ffonts.googleapis.com%2Fcss%3Ffamily%3DInconsolata;fontSize=10;container=0;" parent="1" vertex="1">
          <mxGeometry x="247.5" y="400" width="60" height="20" as="geometry" />
        </mxCell>
        <mxCell id="upIV8DirMd88bO7Y29y2-59" value="" style="endArrow=classic;html=1;rounded=0;exitX=0.5;exitY=1;exitDx=0;exitDy=0;fontFamily=Inconsolata;fontSource=https%3A%2F%2Ffonts.googleapis.com%2Fcss%3Ffamily%3DInconsolata;fontSize=10;" parent="1" source="upIV8DirMd88bO7Y29y2-53" target="upIV8DirMd88bO7Y29y2-42" edge="1">
          <mxGeometry width="50" height="50" relative="1" as="geometry">
            <mxPoint x="365" y="340" as="sourcePoint" />
            <mxPoint x="415" y="290" as="targetPoint" />
          </mxGeometry>
        </mxCell>
      </root>
    </mxGraphModel>
  </diagram>
</mxfile>
